<svg id="Layer_1" data-name="Layer 1" xmlns="http://www.w3.org/2000/svg" viewBox="0 0 1921.23 1052.47"><defs><style>.cls-1{fill:#f9f9d2;}</style></defs><path class="cls-1" d="M300,461.68H1621.23a300,300,0,0,1,300,300v290.79a0,0,0,0,1,0,0H0a0,0,0,0,1,0,0V761.68a300,300,0,0,1,300-300Z"/><polygon class="cls-1" points="960.62 0 1011.21 102.65 1124.35 119.11 1042.48 199.02 1061.81 311.84 960.62 258.57 859.42 311.84 878.75 199.02 796.88 119.11 910.02 102.65 960.62 0"/><polygon class="cls-1" points="960.62 138.57 763.37 480.64 1157.86 480.64 960.62 138.57"/></svg>